<?xml version="1.0" encoding="UTF-8" standalone="no"?>
<!DOCTYPE svg PUBLIC "-//W3C//DTD SVG 1.1//EN" "http://www.w3.org/Graphics/SVG/1.1/DTD/svg11.dtd">
<svg width="100%" height="100%" viewBox="0 0 4484 2567" version="1.1" xmlns="http://www.w3.org/2000/svg" xmlns:xlink="http://www.w3.org/1999/xlink" xml:space="preserve" xmlns:serif="http://www.serif.com/" style="fill-rule:evenodd;clip-rule:evenodd;stroke-linejoin:round;stroke-miterlimit:2;">
    <g transform="matrix(4.16667,0,0,4.16667,0,0)">
        <g>
            <path d="M733.051,274.81C733.051,274.81 729.309,273.176 718.965,271.821C718.965,271.821 698.147,270.234 687.049,265.523C687.049,265.523 665.308,257.105 660.049,253.034C660.049,253.034 660.191,253.247 660.462,253.651C664.424,257.314 668.525,261.109 672.937,264.472C668.525,261.109 664.424,257.314 660.462,253.651C662.871,257.445 676.504,277.667 697.161,284.983C697.161,284.983 708.821,289.798 723.683,289.197C723.683,289.197 738.571,287.017 742.642,295.03C742.642,295.03 742.772,294.661 742.918,294.046C743.79,290.749 745.489,279.863 733.051,274.81Z" style="fill:rgb(255,100,0);fill-rule:nonzero;"/>
            <path d="M705.058,350.724C705.058,350.724 696.207,374.222 687.114,380.163C687.114,380.163 680.608,385.561 670.562,384.976C669.752,384.913 668.933,384.846 668.085,384.705C668.085,384.705 677.181,389.79 693.765,389.112C693.765,389.112 711.437,388.369 716.186,368.231C716.186,368.231 721.84,337.863 731.481,332.775C731.481,332.775 730.871,332.677 729.853,332.648C725.507,332.572 713.2,333.97 705.058,350.724Z" style="fill:rgb(255,100,0);fill-rule:nonzero;"/>
            <path d="M855.96,295.029C837.514,289.535 825.165,292.544 825.165,292.544C812.786,295.806 804.001,301.637 800.678,304.081C799.723,304.8 799.181,305.236 799.181,305.236C816.439,301.232 835.134,312.118 835.134,312.118C850.736,319.518 869.288,316.706 869.288,316.706C913.963,308.499 936.481,275.355 937.335,274.097C937.366,274.066 937.369,274.033 937.369,274.033C925.126,283.401 900.332,291.706 900.332,291.706C879.705,300.892 855.96,295.029 855.96,295.029Z" style="fill:rgb(255,100,0);fill-rule:nonzero;"/>
            <path d="M835.34,236.481C835.34,236.481 851.088,222.976 865.397,218.604C865.397,218.604 865.054,218.101 863.929,217.633C862.616,217.08 860.161,216.612 855.898,217.324C855.898,217.324 848.773,218.502 837.548,215.564C837.548,215.564 809.997,209.588 797.108,227.467C797.108,227.467 787.723,239.261 779.546,259.073C779.546,259.073 764.545,290.474 744.309,303.235C744.309,303.235 723.067,319.613 694.174,323.717C694.174,323.717 670.028,328.203 649.803,321.245C649.803,321.245 624.465,315.174 611.072,303.07C611.072,303.07 608.119,316.835 614.804,328.031C614.804,328.031 615.176,328.979 615.984,330.336C618.325,334.31 624.27,342.144 635.428,343.016C635.428,343.016 646.345,344.987 663.369,337.765C663.369,337.765 691.895,327.414 709.304,327.011C709.304,327.011 751.559,327.319 764.999,321.002C764.999,321.002 785.915,311.779 796.363,298.652C806.785,285.565 809.496,274.581 812.856,267.557C812.856,267.557 822.996,246.493 835.34,236.481Z" style="fill:rgb(255,100,0);fill-rule:nonzero;"/>
            <path d="M686.197,195.069C686.197,195.069 707.272,207.113 722.728,213.079C722.728,213.079 762.512,227.224 762.512,253.034C762.512,253.034 764.012,267.218 762.751,272.837C762.751,272.837 762.786,272.772 762.851,272.674C764.45,270.51 782.665,245.166 773.072,222.442C773.072,222.442 765.676,206.021 734.226,191.849C734.226,191.849 699.324,176.852 682.803,163.088C682.803,163.088 655.296,139.005 653.293,118.041C653.293,118.041 653.265,118.044 653.262,118.074C652.827,118.85 643.566,135.746 653.538,158.985C653.538,158.985 660.835,179.496 686.197,195.069Z" style="fill:rgb(255,100,0);fill-rule:nonzero;"/>
            <path d="M652.353,224.106C652.353,224.106 662.937,234.045 674.291,238.757C674.291,238.757 692.541,246.557 708.788,251.035C708.788,251.035 741.144,257.574 746.502,271.081C746.502,271.081 751.627,279.156 750.234,286.891C750.234,286.891 750.379,286.618 750.575,286.176C751.962,283.018 756.92,270.266 752.301,257.042C752.301,257.042 749.96,246.091 722.666,235.736C722.666,235.736 684.535,222.54 671.991,214.305C671.991,214.305 645.868,200.803 637.66,179.533C637.66,179.533 637.355,182.761 637.595,187.636C638.077,197.376 640.715,213.725 652.353,224.106Z" style="fill:rgb(255,100,0);fill-rule:nonzero;"/>
            <path d="M690.846,348.556C698.517,339.464 704.21,335.798 707.496,334.311C708.272,334.036 709.001,333.696 709.809,333.456C710.306,333.355 710.616,333.293 710.616,333.293C710.549,333.254 710.455,333.25 710.387,333.247C696.609,330.92 675.342,346.892 675.342,346.892C663.47,354.63 653.332,357.636 653.332,357.636C640.036,361.137 630.778,355.94 627.759,353.873C627.08,353.403 626.708,353.094 626.708,353.094C629.937,358.214 633.652,361.977 633.652,361.977C646.963,376.804 662.254,372.736 662.254,372.736C672.838,369.746 690.846,348.556 690.846,348.556Z" style="fill:rgb(255,100,0);fill-rule:nonzero;"/>
            <path d="M957.239,217.485C957.233,217.517 957.204,217.521 957.173,217.553C956.525,218.408 955.747,219.325 954.874,220.232C947.416,227.967 932.96,237.369 932.96,237.369C915.351,250.565 891.64,251.34 891.64,251.34C862.2,249.336 851.825,253.438 851.825,253.438C828.491,261.175 813.291,286.376 813.291,286.376C813.806,286.065 814.306,285.73 814.822,285.434C835.275,272.74 850.812,275.453 850.812,275.453C867.772,277.357 879.608,276.811 879.608,276.811C908.976,274.678 927.463,261.42 927.463,261.42C958.187,241.975 957.749,216.778 957.749,216.778C957.59,217.018 957.413,217.246 957.239,217.485Z" style="fill:rgb(255,100,0);fill-rule:nonzero;"/>
        </g>
        <path d="M139.262,338.508C156.837,338.508 179.662,338.183 192.143,337.524L186.067,353.452L117.75,353.452C118.57,331.61 118.737,318.802 118.737,296.63C118.737,272.653 118.57,259.187 117.75,235.703L139.757,235.703C138.936,259.187 138.77,272.653 138.77,296.63C138.77,312.396 138.936,324.056 139.262,338.508Z" style="fill:white;fill-rule:nonzero;"/>
        <path d="M219.897,353.452L198.875,353.452C199.699,338.014 199.862,328.652 199.862,313.052C199.862,296.304 199.699,288.419 198.875,271.995L219.897,271.995C219.078,288.419 218.912,296.304 218.912,313.052C218.912,328.652 219.078,338.014 219.897,353.452ZM209.386,256.066C201.175,256.066 196.578,250.811 196.578,244.57C196.578,238.658 201.175,233.403 209.386,233.403C217.436,233.403 222.033,238.658 222.033,244.57C222.033,250.811 217.436,256.066 209.386,256.066Z" style="fill:white;fill-rule:nonzero;"/>
        <path d="M270.808,285.463C262.269,285.463 256.19,289.569 251.758,296.794C251.429,301.886 251.263,308.619 251.263,315.025C251.263,324.881 251.429,335.883 251.758,339.987C255.7,341.795 260.134,342.612 266.21,342.612C280.824,342.612 290.843,331.941 290.843,313.052C290.843,294.005 283.123,285.463 270.808,285.463ZM231.064,228.148L252.085,228.148C251.758,236.195 251.429,248.02 251.429,256.559C251.429,266.744 251.429,275.609 251.591,285.299C257.997,274.788 268.181,270.027 279.02,270.027C296.427,270.027 311.043,283.165 311.043,308.619C311.043,335.225 293.47,355.259 263.91,355.259C249.46,355.259 238.946,352.631 231.227,348.364C231.884,327.343 232.05,316.504 232.05,292.852C232.05,267.565 231.884,247.691 231.064,228.148Z" style="fill:white;fill-rule:nonzero;"/>
        <path d="M338.961,303.365L378.047,303.365C376.735,288.748 370.495,282.344 358.835,282.344C347.172,282.344 339.95,290.553 338.961,303.365ZM366.879,340.481C376.568,340.481 385.933,337.358 392.336,332.431L396.935,345.075C387.9,351.976 377.39,355.259 362.775,355.259C338.304,355.259 319.586,339.658 319.586,311.573C319.586,286.449 336.168,270.027 360.31,270.027C381.659,270.027 396.935,283.492 396.935,308.453C396.935,310.919 396.935,312.889 396.769,315.352L339.124,315.352C340.439,332.596 350.953,340.481 366.879,340.481Z" style="fill:white;fill-rule:nonzero;"/>
        <path d="M453.594,270.027C457.865,270.027 460.491,270.353 463.12,271.669L457.042,292.197C454.088,291.211 451.624,290.716 448.174,290.716C441.77,290.716 436.021,293.675 431.258,301.229C430.769,306.977 430.435,314.367 430.435,324.22C430.435,332.76 430.602,343.108 431.258,353.452L410.236,353.452C411.06,338.183 411.226,328.652 411.226,313.052C411.226,296.304 411.06,287.928 410.236,271.995L428.302,271.995L430.602,288.911C436.021,276.101 445.383,270.027 453.594,270.027Z" style="fill:white;fill-rule:nonzero;"/>
        <path d="M500.562,339.987C507.788,339.987 514.193,336.704 519.448,328.327C519.778,323.233 519.94,315.846 519.94,309.277C519.94,299.917 519.778,289.569 519.448,285.463C515.179,283.492 511.072,282.671 505.163,282.671C491.86,282.671 480.197,292.69 480.197,310.919C480.197,331.121 488.901,339.987 500.562,339.987ZM540.141,353.452L521.09,353.452L519.612,340.15C513.209,350.494 502.698,355.259 491.696,355.259C475.107,355.259 459.999,340.971 459.999,314.859C459.999,288.09 480.69,270.027 505.982,270.027C514.688,270.027 520.434,271.011 526.509,272.984L540.633,268.711C539.319,285.136 539.155,294.005 539.155,310.919C539.155,328.327 539.155,335.717 540.141,353.452Z" style="fill:white;fill-rule:nonzero;"/>
        <path d="M576.269,353.452L555.248,353.452C556.069,330.134 556.231,316.504 556.231,292.852C556.231,267.565 556.069,253.11 555.248,228.148L576.269,228.148C575.447,253.11 575.283,267.565 575.283,292.852C575.283,316.504 575.447,330.134 576.269,353.452Z" style="fill:white;fill-rule:nonzero;"/>
        <path d="M138.77,438.045C138.77,453.809 138.936,470.071 139.262,483.21C141.562,483.372 149.447,483.372 154.7,483.372C186.892,483.372 204.623,467.606 204.623,438.209C204.623,408.976 185.576,395.18 153.879,395.18C148.624,395.18 143.699,395.18 139.262,395.343C138.936,405.693 138.77,421.62 138.77,438.045ZM117.75,498.152C118.57,476.308 118.737,463.498 118.737,441.331C118.737,417.353 118.57,403.886 117.75,380.4L157.329,380.4C199.536,380.4 226.14,398.464 226.14,435.086C226.14,474.175 200.682,498.152 156.179,498.152L117.75,498.152Z" style="fill:white;fill-rule:nonzero;"/>
        <path d="M256.028,448.063L295.115,448.063C293.802,433.444 287.559,427.04 275.899,427.04C264.239,427.04 257.015,435.251 256.028,448.063ZM283.947,485.179C293.636,485.179 302.999,482.056 309.4,477.129L314.002,489.776C304.97,496.674 294.457,499.958 279.843,499.958C255.373,499.958 236.651,484.356 236.651,456.275C236.651,431.144 253.237,414.722 277.378,414.722C298.728,414.722 314.002,428.192 314.002,453.154C314.002,455.617 314.002,457.585 313.836,460.052L256.194,460.052C257.509,477.295 268.018,485.179 283.947,485.179Z" style="fill:white;fill-rule:nonzero;"/>
        <path d="M450.968,444.288C450.968,454.959 450.31,461.365 450.31,470.233C450.31,481.071 450.31,487.15 451.131,498.152L430.602,498.152C431.426,487.806 431.426,481.891 431.426,471.218C431.426,461.694 431.258,451.346 430.931,446.094C430.272,435.58 425.185,430.161 416.48,430.161C409.581,430.161 403.012,433.775 397.922,441.494C397.266,448.227 397.101,458.408 397.101,467.606C397.101,479.427 397.266,486.329 397.922,498.152L377.228,498.152C378.05,487.806 378.05,481.891 378.05,471.218C378.05,461.694 378.05,451.513 377.722,446.094C377.065,435.417 371.81,430.161 363.107,430.161C356.209,430.161 349.637,433.775 344.711,441.494C344.054,448.227 343.892,458.408 343.892,467.606C343.892,479.427 344.054,486.329 344.711,498.152L324.017,498.152C324.84,482.714 325.007,473.354 325.007,457.753C325.007,441 324.84,433.28 324.017,416.693L342.413,416.693L344.383,429.997C351.119,419.816 359.163,414.722 371.974,414.722C383.141,414.722 392.009,421.128 395.293,431.639C403.507,420.142 412.864,414.722 424.857,414.722C440.292,414.722 450.968,425.564 450.968,444.288Z" style="fill:white;fill-rule:nonzero;"/>
        <path d="M503.683,427.698C489.394,427.698 481.183,439.852 481.183,457.421C481.183,474.829 489.394,487.15 503.683,487.15C518.133,487.15 526.344,474.996 526.344,457.421C526.344,439.852 517.969,427.698 503.683,427.698ZM503.683,414.722C530.12,414.722 547.036,431.967 547.036,456.438C547.036,480.579 529.299,499.958 503.683,499.958C477.077,499.958 460.654,483.046 460.654,458.408C460.654,433.938 478.06,414.722 503.683,414.722Z" style="fill:white;fill-rule:nonzero;"/>
        <path d="M575.942,454.959C575.942,475.816 586.944,485.179 601.89,485.179C608.788,485.179 615.517,483.535 621.269,479.427L625.866,491.583C617.491,497.331 608.131,499.958 595.975,499.958C573.476,499.958 555.576,485.343 555.576,456.929C555.576,433.28 574.134,414.722 599.424,414.722C609.934,414.722 617.491,416.201 624.881,419.158L620.119,432.459C614.861,429.997 608.131,428.355 601.233,428.355C585.299,428.355 575.942,438.7 575.942,454.959Z" style="fill:white;fill-rule:nonzero;"/>
        <path d="M682.52,414.722C686.793,414.722 689.421,415.051 692.048,416.364L685.973,436.893C683.015,435.909 680.553,435.417 677.103,435.417C670.697,435.417 664.949,438.374 660.187,445.927C659.694,451.675 659.366,459.069 659.366,468.919C659.366,477.458 659.532,487.806 660.187,498.152L639.166,498.152C639.988,482.881 640.153,473.354 640.153,457.753C640.153,441 639.988,432.623 639.166,416.693L657.231,416.693L659.532,433.609C664.949,420.799 674.309,414.722 682.52,414.722Z" style="fill:white;fill-rule:nonzero;"/>
        <path d="M729.493,484.687C736.715,484.687 743.122,481.399 748.377,473.023C748.705,467.935 748.871,460.542 748.871,453.975C748.871,444.615 748.705,434.267 748.377,430.161C744.109,428.192 739.999,427.372 734.09,427.372C720.788,427.372 709.127,437.384 709.127,455.617C709.127,475.816 717.832,484.687 729.493,484.687ZM769.071,498.152L750.017,498.152L748.538,484.851C742.137,495.195 731.629,499.958 720.627,499.958C704.036,499.958 688.929,485.672 688.929,459.558C688.929,432.788 709.621,414.722 734.911,414.722C743.614,414.722 749.364,415.707 755.441,417.68L769.562,413.41C768.251,429.834 768.083,438.7 768.083,455.617C768.083,473.023 768.083,480.415 769.071,498.152Z" style="fill:white;fill-rule:nonzero;"/>
        <path d="M810.78,430.161C810.78,445.927 810.126,462.515 811.109,473.681C811.767,481.562 817.351,485.179 823.098,485.179C828.846,485.179 832.954,484.193 837.058,481.562L841.161,493.06C835.09,497.495 826.218,499.958 816.366,499.958C802.077,499.958 791.402,490.27 791.402,472.367C791.402,460.052 792.059,443.794 792.059,430.161L778.595,430.161L778.595,416.693L792.223,416.693C792.223,408.814 792.223,403.394 791.897,396.001L812.424,391.566C811.437,400.272 811.109,408.976 811.109,416.693L836.731,416.693L836.731,430.161L810.78,430.161Z" style="fill:white;fill-rule:nonzero;"/>
        <path d="M905.705,431.802C899.627,429.505 892.895,428.192 885.34,428.192C873.022,428.192 868.918,431.639 868.918,436.401C868.918,440.342 871.218,442.973 880.251,446.419L890.27,450.36C906.033,456.438 911.947,463.498 911.947,475.487C911.947,490.104 898.314,499.958 879.59,499.958C864.976,499.958 855.942,497.658 848.062,493.554L852.004,480.415C859.394,484.356 868.588,486.657 877.457,486.657C888.788,486.657 893.387,482.714 893.387,477.295C893.387,472.367 891.09,469.413 879.59,465.143L869.575,461.365C856.929,456.764 850.359,450.034 850.359,438.209C850.359,425.072 862.676,414.722 884.192,414.722C894.536,414.722 901.929,415.707 909.644,418.501L905.705,431.802Z" style="fill:white;fill-rule:nonzero;"/>
    </g>
</svg>
