<?xml version="1.0" encoding="UTF-8" standalone="no"?>
<!DOCTYPE svg PUBLIC "-//W3C//DTD SVG 1.1//EN" "http://www.w3.org/Graphics/SVG/1.1/DTD/svg11.dtd">
<svg width="100%" height="100%" viewBox="0 0 4484 2567" version="1.1" xmlns="http://www.w3.org/2000/svg" xmlns:xlink="http://www.w3.org/1999/xlink" xml:space="preserve" xmlns:serif="http://www.serif.com/" style="fill-rule:evenodd;clip-rule:evenodd;stroke-linejoin:round;stroke-miterlimit:2;">
    <g transform="matrix(4.16667,0,0,4.16667,0,0)">
        <path d="M139.262,338.508C156.837,338.508 179.662,338.183 192.143,337.524L186.067,353.452L117.75,353.452C118.57,331.61 118.737,318.802 118.737,296.63C118.737,272.653 118.57,259.187 117.75,235.703L139.757,235.703C138.936,259.187 138.77,272.653 138.77,296.63C138.77,312.396 138.936,324.056 139.262,338.508Z" style="fill:white;fill-rule:nonzero;"/>
        <path d="M219.897,353.452L198.875,353.452C199.699,338.014 199.862,328.652 199.862,313.052C199.862,296.304 199.699,288.419 198.875,271.995L219.897,271.995C219.078,288.419 218.912,296.304 218.912,313.052C218.912,328.652 219.078,338.014 219.897,353.452ZM209.386,256.066C201.175,256.066 196.578,250.811 196.578,244.57C196.578,238.658 201.175,233.403 209.386,233.403C217.436,233.403 222.033,238.658 222.033,244.57C222.033,250.811 217.436,256.066 209.386,256.066Z" style="fill:white;fill-rule:nonzero;"/>
        <path d="M270.808,285.463C262.269,285.463 256.19,289.569 251.758,296.794C251.429,301.886 251.263,308.619 251.263,315.025C251.263,324.881 251.429,335.883 251.758,339.987C255.7,341.795 260.134,342.612 266.21,342.612C280.824,342.612 290.843,331.941 290.843,313.052C290.843,294.005 283.123,285.463 270.808,285.463ZM231.064,228.148L252.085,228.148C251.758,236.195 251.429,248.02 251.429,256.559C251.429,266.744 251.429,275.609 251.591,285.299C257.997,274.788 268.181,270.027 279.02,270.027C296.427,270.027 311.043,283.165 311.043,308.619C311.043,335.225 293.47,355.259 263.91,355.259C249.46,355.259 238.946,352.631 231.227,348.364C231.884,327.343 232.05,316.504 232.05,292.852C232.05,267.565 231.884,247.691 231.064,228.148Z" style="fill:white;fill-rule:nonzero;"/>
        <path d="M338.961,303.365L378.047,303.365C376.735,288.748 370.495,282.344 358.835,282.344C347.172,282.344 339.95,290.553 338.961,303.365ZM366.879,340.481C376.568,340.481 385.933,337.358 392.336,332.431L396.935,345.075C387.9,351.976 377.39,355.259 362.775,355.259C338.304,355.259 319.586,339.658 319.586,311.573C319.586,286.449 336.168,270.027 360.31,270.027C381.659,270.027 396.935,283.492 396.935,308.453C396.935,310.919 396.935,312.889 396.769,315.352L339.124,315.352C340.439,332.596 350.953,340.481 366.879,340.481Z" style="fill:white;fill-rule:nonzero;"/>
        <path d="M453.594,270.027C457.865,270.027 460.491,270.353 463.12,271.669L457.042,292.197C454.088,291.211 451.624,290.716 448.174,290.716C441.77,290.716 436.021,293.675 431.258,301.229C430.769,306.977 430.435,314.367 430.435,324.22C430.435,332.76 430.602,343.108 431.258,353.452L410.236,353.452C411.06,338.183 411.226,328.652 411.226,313.052C411.226,296.304 411.06,287.928 410.236,271.995L428.302,271.995L430.602,288.911C436.021,276.101 445.383,270.027 453.594,270.027Z" style="fill:white;fill-rule:nonzero;"/>
        <path d="M500.562,339.987C507.788,339.987 514.193,336.704 519.448,328.327C519.778,323.233 519.94,315.846 519.94,309.277C519.94,299.917 519.778,289.569 519.448,285.463C515.179,283.492 511.072,282.671 505.163,282.671C491.86,282.671 480.197,292.69 480.197,310.919C480.197,331.121 488.901,339.987 500.562,339.987ZM540.141,353.452L521.09,353.452L519.612,340.15C513.209,350.494 502.698,355.259 491.696,355.259C475.107,355.259 459.999,340.971 459.999,314.859C459.999,288.09 480.69,270.027 505.982,270.027C514.688,270.027 520.434,271.011 526.509,272.984L540.633,268.711C539.319,285.136 539.155,294.005 539.155,310.919C539.155,328.327 539.155,335.717 540.141,353.452Z" style="fill:white;fill-rule:nonzero;"/>
        <path d="M576.269,353.452L555.248,353.452C556.069,330.134 556.231,316.504 556.231,292.852C556.231,267.565 556.069,253.11 555.248,228.148L576.269,228.148C575.447,253.11 575.283,267.565 575.283,292.852C575.283,316.504 575.447,330.134 576.269,353.452Z" style="fill:white;fill-rule:nonzero;"/>
        <path d="M138.77,438.045C138.77,453.809 138.936,470.071 139.262,483.21C141.562,483.372 149.447,483.372 154.7,483.372C186.892,483.372 204.623,467.606 204.623,438.209C204.623,408.976 185.576,395.18 153.879,395.18C148.624,395.18 143.699,395.18 139.262,395.343C138.936,405.693 138.77,421.62 138.77,438.045ZM117.75,498.152C118.57,476.308 118.737,463.498 118.737,441.331C118.737,417.353 118.57,403.886 117.75,380.4L157.329,380.4C199.536,380.4 226.14,398.464 226.14,435.086C226.14,474.175 200.682,498.152 156.179,498.152L117.75,498.152Z" style="fill:white;fill-rule:nonzero;"/>
        <path d="M256.028,448.063L295.115,448.063C293.802,433.444 287.559,427.04 275.899,427.04C264.239,427.04 257.015,435.251 256.028,448.063ZM283.947,485.179C293.636,485.179 302.999,482.056 309.4,477.129L314.002,489.776C304.97,496.674 294.457,499.958 279.843,499.958C255.373,499.958 236.651,484.356 236.651,456.275C236.651,431.144 253.237,414.722 277.378,414.722C298.728,414.722 314.002,428.192 314.002,453.154C314.002,455.617 314.002,457.585 313.836,460.052L256.194,460.052C257.509,477.295 268.018,485.179 283.947,485.179Z" style="fill:white;fill-rule:nonzero;"/>
        <path d="M450.968,444.288C450.968,454.959 450.31,461.365 450.31,470.233C450.31,481.071 450.31,487.15 451.131,498.152L430.602,498.152C431.426,487.806 431.426,481.891 431.426,471.218C431.426,461.694 431.258,451.346 430.931,446.094C430.272,435.58 425.185,430.161 416.48,430.161C409.581,430.161 403.012,433.775 397.922,441.494C397.266,448.227 397.101,458.408 397.101,467.606C397.101,479.427 397.266,486.329 397.922,498.152L377.228,498.152C378.05,487.806 378.05,481.891 378.05,471.218C378.05,461.694 378.05,451.513 377.722,446.094C377.065,435.417 371.81,430.161 363.107,430.161C356.209,430.161 349.637,433.775 344.711,441.494C344.054,448.227 343.892,458.408 343.892,467.606C343.892,479.427 344.054,486.329 344.711,498.152L324.017,498.152C324.84,482.714 325.007,473.354 325.007,457.753C325.007,441 324.84,433.28 324.017,416.693L342.413,416.693L344.383,429.997C351.119,419.816 359.163,414.722 371.974,414.722C383.141,414.722 392.009,421.128 395.293,431.639C403.507,420.142 412.864,414.722 424.857,414.722C440.292,414.722 450.968,425.564 450.968,444.288Z" style="fill:white;fill-rule:nonzero;"/>
        <path d="M503.683,427.698C489.394,427.698 481.183,439.852 481.183,457.421C481.183,474.829 489.394,487.15 503.683,487.15C518.133,487.15 526.344,474.996 526.344,457.421C526.344,439.852 517.969,427.698 503.683,427.698ZM503.683,414.722C530.12,414.722 547.036,431.967 547.036,456.438C547.036,480.579 529.299,499.958 503.683,499.958C477.077,499.958 460.654,483.046 460.654,458.408C460.654,433.938 478.06,414.722 503.683,414.722Z" style="fill:white;fill-rule:nonzero;"/>
        <path d="M575.942,454.959C575.942,475.816 586.944,485.179 601.89,485.179C608.788,485.179 615.517,483.535 621.269,479.427L625.866,491.583C617.491,497.331 608.131,499.958 595.975,499.958C573.476,499.958 555.576,485.343 555.576,456.929C555.576,433.28 574.134,414.722 599.424,414.722C609.934,414.722 617.491,416.201 624.881,419.158L620.119,432.459C614.861,429.997 608.131,428.355 601.233,428.355C585.299,428.355 575.942,438.7 575.942,454.959Z" style="fill:white;fill-rule:nonzero;"/>
        <path d="M682.52,414.722C686.793,414.722 689.421,415.051 692.048,416.364L685.973,436.893C683.015,435.909 680.553,435.417 677.103,435.417C670.697,435.417 664.949,438.374 660.187,445.927C659.694,451.675 659.366,459.069 659.366,468.919C659.366,477.458 659.532,487.806 660.187,498.152L639.166,498.152C639.988,482.881 640.153,473.354 640.153,457.753C640.153,441 639.988,432.623 639.166,416.693L657.231,416.693L659.532,433.609C664.949,420.799 674.309,414.722 682.52,414.722Z" style="fill:white;fill-rule:nonzero;"/>
        <path d="M729.493,484.687C736.715,484.687 743.122,481.399 748.377,473.023C748.705,467.935 748.871,460.542 748.871,453.975C748.871,444.615 748.705,434.267 748.377,430.161C744.109,428.192 739.999,427.372 734.09,427.372C720.788,427.372 709.127,437.384 709.127,455.617C709.127,475.816 717.832,484.687 729.493,484.687ZM769.071,498.152L750.017,498.152L748.538,484.851C742.137,495.195 731.629,499.958 720.627,499.958C704.036,499.958 688.929,485.672 688.929,459.558C688.929,432.788 709.621,414.722 734.911,414.722C743.614,414.722 749.364,415.707 755.441,417.68L769.562,413.41C768.251,429.834 768.083,438.7 768.083,455.617C768.083,473.023 768.083,480.415 769.071,498.152Z" style="fill:white;fill-rule:nonzero;"/>
        <path d="M810.78,430.161C810.78,445.927 810.126,462.515 811.109,473.681C811.767,481.562 817.351,485.179 823.098,485.179C828.846,485.179 832.954,484.193 837.058,481.562L841.161,493.06C835.09,497.495 826.218,499.958 816.366,499.958C802.077,499.958 791.402,490.27 791.402,472.367C791.402,460.052 792.059,443.794 792.059,430.161L778.595,430.161L778.595,416.693L792.223,416.693C792.223,408.814 792.223,403.394 791.897,396.001L812.424,391.566C811.437,400.272 811.109,408.976 811.109,416.693L836.731,416.693L836.731,430.161L810.78,430.161Z" style="fill:white;fill-rule:nonzero;"/>
        <path d="M905.705,431.802C899.627,429.505 892.895,428.192 885.34,428.192C873.022,428.192 868.918,431.639 868.918,436.401C868.918,440.342 871.218,442.973 880.251,446.419L890.27,450.36C906.033,456.438 911.947,463.498 911.947,475.487C911.947,490.104 898.314,499.958 879.59,499.958C864.976,499.958 855.942,497.658 848.062,493.554L852.004,480.415C859.394,484.356 868.588,486.657 877.457,486.657C888.788,486.657 893.387,482.714 893.387,477.295C893.387,472.367 891.09,469.413 879.59,465.143L869.575,461.365C856.929,456.764 850.359,450.034 850.359,438.209C850.359,425.072 862.676,414.722 884.192,414.722C894.536,414.722 901.929,415.707 909.644,418.501L905.705,431.802Z" style="fill:white;fill-rule:nonzero;"/>
        <g>
            <path d="M747.136,219.72C752.829,223.513 756.701,227.755 759.414,232.916C762.311,238.423 763.838,244.127 764.086,250.538C764.381,257.886 763.746,265.968 761.658,273.553C761.953,273.161 763.378,271.622 764.51,269.825C769.495,261.933 779.925,242.046 772.263,223.877C772.263,223.877 765.006,207.779 734.112,193.832C734.112,193.832 699.86,179.144 683.655,165.618C683.655,165.618 656.016,141.978 654.039,121.397L654.039,121.434C641.788,178.093 709.647,193.645 747.136,219.72Z" style="fill:url(#_Linear1);"/>
            <path d="M861.644,219.522C861.295,219.293 860.991,219.15 860.752,219.052C859.888,218.706 858.922,218.496 857.432,218.496C856.346,218.496 855.077,218.613 853.578,218.863C853.578,218.863 852.171,219.096 849.651,219.096C846.514,219.096 841.64,218.746 835.533,217.138C835.533,217.138 831.191,216.209 825.167,216.209C816.163,216.209 803.443,218.313 795.864,228.81C795.864,228.81 786.648,240.406 778.6,259.82C778.6,259.82 763.875,290.662 744.027,303.199C744.027,303.199 723.167,319.288 694.82,323.32C694.82,323.32 687.324,324.709 677.207,324.709C669.362,324.709 659.925,323.861 651.243,320.886C651.243,320.886 637.29,317.536 624.763,310.85C620.569,308.612 615.75,306.024 612.448,303.039C612.448,303.039 611.831,305.938 611.813,310.131L611.813,310.521C611.831,315.359 612.677,321.819 616.108,327.578C616.108,327.578 616.605,328.682 617.396,330.033C623.88,335.694 631.992,337.675 640.068,337.675C658.922,337.675 680.904,327.144 699.18,326.053C725.411,326.053 754.549,322.653 774.986,308.103C790.272,297.214 800.49,278.797 808.906,259.154C817.395,237.909 837.85,224.682 861.644,219.522Z" style="fill:url(#_Linear2);"/>
            <path d="M705.489,349.832C705.489,349.832 696.816,372.895 687.895,378.722C687.895,378.722 685.66,380.581 681.787,381.977C679.46,382.815 675.938,383.647 672.562,383.647C672.066,383.647 669.067,383.586 668.543,383.555C671.909,384.55 677.373,385.596 680.518,385.922C680.665,385.937 681.466,385.911 681.604,385.923C713.546,388.84 716.765,354.983 725.282,333.616C725.365,333.534 725.457,333.457 725.549,333.384C726.579,332.555 729.164,332.599 730.911,332.475C730.81,332.475 730.295,332.289 730.185,332.27C729.614,332.169 729.467,332.152 728.676,332.098C727.821,332.038 726.883,332.25 726.193,332.363C720.638,333.265 711.79,336.856 705.489,349.832Z" style="fill:rgb(253,194,25);fill-rule:nonzero;"/>
            <path d="M870.989,296.942C865.838,296.942 860.669,296.539 855.638,295.506C852.244,294.81 848.933,293.812 845.53,293.164C842.596,292.612 839.625,292.226 836.636,292.027C835.257,291.933 833.868,291.893 832.488,291.893C826.731,291.893 823.419,292.718 823.419,292.718C813.523,295.296 805.99,299.566 801.759,302.366C800.784,303.016 799.249,304.082 798.632,304.534C799.966,304.129 802.054,303.368 803.406,303.195C806.708,302.774 810.037,302.898 813.229,302.898C821.488,302.898 829.278,306.712 837.436,308.542C845.567,310.392 853.918,311.14 862.159,311.14C866.795,311.14 871.927,310.342 876.618,308.876C897.275,300.921 916.268,292.781 932.437,275.864L933.55,274.523C921.538,283.726 897.193,291.893 897.193,291.893C888.289,295.847 878.816,296.942 870.989,296.942Z" style="fill:url(#_Linear3);"/>
            <path d="M929.218,238.543C919.966,245.47 908.754,249.243 897.468,251.241C881.778,254.038 864.863,249.096 849.559,254.304C826.675,261.901 811.729,286.657 811.729,286.657C812.226,286.34 812.732,286.036 813.229,285.723C832.267,262.896 869.186,275.881 895.712,268.089C919.441,262.15 941.837,245.481 950.731,221.716C943.419,229.3 929.218,238.543 929.218,238.543Z" style="fill:url(#_Linear4);"/>
            <path d="M706.142,331.989C692.732,331.989 674.604,345.616 674.604,345.616C662.96,353.219 653.009,356.173 653.009,356.173C649.872,356.988 646.984,357.319 644.317,357.319C635.929,357.319 630.153,354.018 627.899,352.475C634.632,360.879 643.452,368.28 652.401,368.28C656.485,368.28 660.596,367.171 664.588,364.681C680.077,356.942 692.631,337.679 710.428,332.985C709.113,332.191 707.844,332.062 707.255,332.025C706.887,332.001 706.519,331.989 706.142,331.989Z" style="fill:url(#_Linear5);"/>
            <path d="M719.148,272.371C719.148,272.371 698.72,270.79 687.812,266.191C687.812,266.191 666.235,258.712 661.111,254.695C661.111,254.695 662.684,256.737 663.475,257.514C670.465,264.355 678.568,272.315 687.609,275.713C694.406,280.038 703.76,283.405 712.875,283.852C721.631,284.282 730.166,282.689 735.97,286.866C738.352,288.582 739.355,289.45 740.642,291.755C741.093,292.56 741.608,294.037 741.893,295.378C742.178,295.141 742.353,294.77 742.601,294.248C742.896,293.63 743.043,292.814 743.107,292.283C743.668,287.674 743.043,279.382 732.971,275.302C732.971,275.302 729.311,273.686 719.148,272.371Z" style="fill:url(#_Linear6);"/>
            <path d="M651.105,217.374C674.034,238.683 707.54,242.866 737.037,257.602C747.66,262.159 750.732,274.356 749.693,286.654C751.045,283.578 756.397,270.823 751.863,257.856C751.863,257.856 749.573,247.112 722.79,236.932C722.79,236.932 685.347,223.973 673.013,215.9C673.013,215.9 647.407,202.664 639.35,181.772C639.35,181.772 638.412,184.998 638.633,189.773C640.417,200.314 643.581,211.11 651.105,217.374Z" style="fill:url(#_Linear7);"/>
            <path d="M861.166,219.293C837.335,224.462 815.353,237.154 806.846,258.43C798.531,277.815 789.554,294.691 774.553,305.56C756.986,318.276 730.185,323.537 708.892,325.17C701.81,325.713 694.71,325.724 687.683,326.848C681.19,327.884 674.797,329.491 668.405,330.999C662.004,332.508 655.584,333.998 649.054,334.839C645.568,335.288 642.054,335.558 638.541,335.486C630.815,335.329 620.836,330.11 614.6,324.675C615.308,325.883 616.127,328.552 617.92,330.883C621.949,336.102 628.902,341.968 636.471,342.545C636.471,342.545 647.205,344.491 663.944,337.38C663.944,337.38 692.015,327.206 709.113,326.829C709.113,326.829 746.593,327.175 762.514,321.501C774.553,317.203 784.459,311.834 794.705,298.949C804.969,286.06 807.627,275.27 810.939,268.368C810.939,268.368 820.89,247.642 833.049,237.822C833.049,237.822 848.529,224.53 862.601,220.261C862.601,220.261 862.242,219.746 861.166,219.293Z" style="fill:url(#_Linear8);"/>
            <path d="M747.761,219.034C710.198,192.919 643.278,176.615 654.039,121.397C653.873,122.263 644.473,138.789 654.305,161.613C654.305,161.613 661.461,181.781 686.405,197.094C686.405,197.094 707.127,208.929 722.302,214.812C722.302,214.812 754.889,226.371 760.601,247.669C760.867,248.663 761.07,249.679 761.217,250.716C761.364,251.812 761.456,252.475 761.566,254.088C761.566,254.088 761.704,256.507 761.907,259.744C762.201,264.26 762.394,270.339 761.658,273.553L761.787,273.388C762.017,272.952 762.127,272.544 762.265,272.122C762.449,271.573 762.551,271.028 762.679,270.486C763.369,267.671 763.765,264.873 764.151,262.065C766.469,245.367 763.066,229.232 747.761,219.034Z" style="fill:url(#_Linear9);"/>
            <path d="M733.753,254.291C730.129,252.703 726.294,251.452 722.652,249.986C717.446,247.895 712.176,245.957 706.915,244.023C703.898,242.916 700.891,241.811 697.883,240.679C687.416,236.731 677.042,232.519 667.393,226.786C662.022,223.591 657.359,219.742 652.576,215.758C645.034,209.484 640.399,200.33 638.633,189.773C639.102,199.355 641.705,215.449 653.11,225.638C653.11,225.638 663.549,235.433 674.715,240.044C674.715,240.044 692.64,247.712 708.607,252.139C708.607,252.139 738.113,260.059 745.701,271.847C745.701,271.847 750.75,279.783 749.352,287.376C749.352,287.376 749.49,287.12 749.693,286.654C749.978,286.005 750.005,285.211 750.042,284.513C750.116,283.193 750.125,281.859 750.134,280.538C750.143,279.628 750.079,278.719 750.06,277.81C750.042,276.847 749.987,275.882 749.895,274.922C749.711,272.986 749.371,271.065 748.791,269.205C746.915,263.181 742.555,258.803 737.064,255.88C735.988,255.307 734.884,254.783 733.753,254.291Z" style="fill:url(#_Linear10);"/>
            <path d="M687.039,273.202C684.648,271.752 668.791,261.75 661.111,254.695C663.475,258.43 676.885,278.305 697.193,285.479C697.193,285.479 708.635,290.227 723.268,289.628C723.268,289.628 724.28,289.479 725.853,289.405C730.24,289.197 738.941,289.567 741.893,295.378C741.893,295.378 742.013,295.476 742.178,294.876C741.304,290.814 739.64,287.38 737.478,285.758C733.266,282.61 727.002,283.823 719.883,283.19C708.745,282.201 695.657,278.691 687.039,273.202Z" style="fill:url(#_Linear11);"/>
            <path d="M665.692,363.458C653.009,371.394 638.798,365.492 628.966,353.24C628.267,352.782 627.899,352.455 627.899,352.455C631.082,357.487 634.733,361.209 634.733,361.209C647.84,375.765 662.859,371.784 662.859,371.784C673.28,368.845 690.985,348.012 690.985,348.012C703.19,333.505 710.428,332.985 710.428,332.985L710.18,332.955C692.355,337.656 681.217,355.707 665.692,363.458Z" style="fill:url(#_Linear12);"/>
            <path d="M724.767,333.908C720.702,337.642 718.982,342.854 717.281,347.948C714.273,356.925 711.643,367.758 705.848,375.417C701.994,380.517 696.577,383.428 690.341,384.526C686.892,385.131 682.919,385.665 679.414,385.398C675.754,385.128 672.139,384.355 668.543,383.555C672.047,385 675.331,386.237 679.139,386.863C684.114,387.671 690.691,388.926 695.722,387.772C705.609,385.532 711.826,379.034 715.266,369.627C716.241,366.955 716.6,364.16 717.17,361.388C718.366,355.61 720.233,349.909 722.505,344.469C724.271,340.242 726.634,334.741 730.911,332.475C730.911,332.475 730.332,332.385 729.338,332.374C727.444,332.509 725.797,332.897 724.767,333.908Z" style="fill:url(#_Linear13);"/>
            <path d="M953.38,218.459C953.242,218.679 953.076,218.894 952.911,219.127L952.837,219.215C952.212,220.061 951.43,220.929 950.565,221.845C945.001,233.189 939.584,241.216 930.754,249.492C922.578,257.159 912.249,262.665 901.46,265.933C898.02,266.979 894.525,267.769 890.993,268.445C882.081,270.134 873.371,270.434 864.357,269.553C854.967,268.635 844.988,268.18 835.726,270.353C828.552,272.036 822.877,276.571 817.368,281.251C815.74,282.64 813.817,284.674 812.355,286.248C819.087,282.172 826.795,278.689 834.493,277.006C838.568,276.116 843.59,275.735 847.039,276.003C856.264,276.716 865.406,277.651 874.677,277.503C875.302,277.487 875.928,277.474 876.544,277.467C905.452,275.371 923.598,262.331 923.598,262.331C953.831,243.236 953.38,218.459 953.38,218.459Z" style="fill:url(#_Linear14);"/>
            <path d="M876.94,307.212C897.652,300.595 917.427,291.412 933.339,274.802C932.502,276.016 910.326,308.615 866.427,316.691C866.427,316.691 850.285,319.148 835.615,313.374C834.456,312.92 833.334,312.393 832.24,311.83C831.936,311.675 831.633,311.516 831.329,311.361C826.574,308.935 811.536,302.158 797.51,305.418C797.51,305.418 798.025,304.98 798.963,304.285C810.561,300.759 820.771,300.151 830.961,302.961C843.728,306.479 856.843,313.632 876.94,307.212Z" style="fill:url(#_Linear15);"/>
        </g>
    </g>
    <defs>
        <linearGradient id="_Linear1" x1="0" y1="0" x2="1" y2="0" gradientUnits="userSpaceOnUse" gradientTransform="matrix(-147.176,-84.973,-84.973,147.176,781.727,240.128)"><stop offset="0" style="stop-color:rgb(253,189,26);stop-opacity:1"/><stop offset="1" style="stop-color:rgb(255,203,17);stop-opacity:1"/></linearGradient>
        <linearGradient id="_Linear2" x1="0" y1="0" x2="1" y2="0" gradientUnits="userSpaceOnUse" gradientTransform="matrix(197.747,-165.93,-165.93,-197.747,636.941,353.333)"><stop offset="0" style="stop-color:rgb(250,191,27);stop-opacity:1"/><stop offset="1" style="stop-color:rgb(255,203,17);stop-opacity:1"/></linearGradient>
        <linearGradient id="_Linear3" x1="0" y1="0" x2="1" y2="0" gradientUnits="userSpaceOnUse" gradientTransform="matrix(93.955,-78.837,-78.837,-93.955,819.409,329.297)"><stop offset="0" style="stop-color:rgb(252,181,28);stop-opacity:1"/><stop offset="1" style="stop-color:rgb(255,203,17);stop-opacity:1"/></linearGradient>
        <linearGradient id="_Linear4" x1="0" y1="0" x2="1" y2="0" gradientUnits="userSpaceOnUse" gradientTransform="matrix(113.544,-95.274,-95.274,-113.544,825.903,303.541)"><stop offset="0" style="stop-color:rgb(249,172,31);stop-opacity:1"/><stop offset="1" style="stop-color:rgb(255,203,17);stop-opacity:1"/></linearGradient>
        <linearGradient id="_Linear5" x1="0" y1="0" x2="1" y2="0" gradientUnits="userSpaceOnUse" gradientTransform="matrix(82.53,-0,0,-82.53,627.899,350.135)"><stop offset="0" style="stop-color:rgb(246,155,35);stop-opacity:1"/><stop offset="0.1" style="stop-color:rgb(253,191,24);stop-opacity:1"/><stop offset="1" style="stop-color:rgb(255,203,17);stop-opacity:1"/></linearGradient>
        <linearGradient id="_Linear6" x1="0" y1="0" x2="1" y2="0" gradientUnits="userSpaceOnUse" gradientTransform="matrix(82.143,-0,0,-82.143,661.111,275.037)"><stop offset="0" style="stop-color:rgb(255,203,17);stop-opacity:1"/><stop offset="1" style="stop-color:rgb(251,180,29);stop-opacity:1"/></linearGradient>
        <linearGradient id="_Linear7" x1="0" y1="0" x2="1" y2="0" gradientUnits="userSpaceOnUse" gradientTransform="matrix(-98.577,17.382,17.382,98.577,746.492,225.049)"><stop offset="0" style="stop-color:rgb(252,182,28);stop-opacity:1"/><stop offset="1" style="stop-color:rgb(255,203,17);stop-opacity:1"/></linearGradient>
        <linearGradient id="_Linear8" x1="0" y1="0" x2="1" y2="0" gradientUnits="userSpaceOnUse" gradientTransform="matrix(247.999,-0,0,-247.999,614.6,281.041)"><stop offset="0" style="stop-color:rgb(222,131,39);stop-opacity:1"/><stop offset="0.3" style="stop-color:rgb(233,165,36);stop-opacity:1"/><stop offset="0.5" style="stop-color:rgb(223,139,40);stop-opacity:1"/><stop offset="0.6" style="stop-color:rgb(223,139,40);stop-opacity:1"/><stop offset="1" style="stop-color:rgb(255,205,15);stop-opacity:1"/></linearGradient>
        <linearGradient id="_Linear9" x1="0" y1="0" x2="1" y2="0" gradientUnits="userSpaceOnUse" gradientTransform="matrix(-61.491,-168.946,-168.946,61.491,738.306,282.055)"><stop offset="0" style="stop-color:rgb(207,131,41);stop-opacity:1"/><stop offset="0.9" style="stop-color:rgb(255,205,15);stop-opacity:1"/><stop offset="1" style="stop-color:rgb(255,205,15);stop-opacity:1"/></linearGradient>
        <linearGradient id="_Linear10" x1="0" y1="0" x2="1" y2="0" gradientUnits="userSpaceOnUse" gradientTransform="matrix(-44.3199,-121.769,-121.769,44.3199,717.363,299.019)"><stop offset="0" style="stop-color:rgb(215,133,42);stop-opacity:1"/><stop offset="1" style="stop-color:rgb(255,205,15);stop-opacity:1"/></linearGradient>
        <linearGradient id="_Linear11" x1="0" y1="0" x2="1" y2="0" gradientUnits="userSpaceOnUse" gradientTransform="matrix(-22.531,-61.903,-61.903,22.531,713.096,305.877)"><stop offset="0" style="stop-color:rgb(222,131,39);stop-opacity:1"/><stop offset="0.9" style="stop-color:rgb(255,205,15);stop-opacity:1"/><stop offset="1" style="stop-color:rgb(255,205,15);stop-opacity:1"/></linearGradient>
        <linearGradient id="_Linear12" x1="0" y1="0" x2="1" y2="0" gradientUnits="userSpaceOnUse" gradientTransform="matrix(82.53,-0,0,-82.53,627.899,352.618)"><stop offset="0" style="stop-color:rgb(222,131,39);stop-opacity:1"/><stop offset="0.3" style="stop-color:rgb(222,131,39);stop-opacity:1"/><stop offset="1" style="stop-color:rgb(255,205,15);stop-opacity:1"/></linearGradient>
        <linearGradient id="_Linear13" x1="0" y1="0" x2="1" y2="0" gradientUnits="userSpaceOnUse" gradientTransform="matrix(62.3589,-0,0,-62.3589,668.543,360.306)"><stop offset="0" style="stop-color:rgb(215,133,42);stop-opacity:1"/><stop offset="0.5" style="stop-color:rgb(217,138,42);stop-opacity:1"/><stop offset="0.9" style="stop-color:rgb(254,201,19);stop-opacity:1"/><stop offset="1" style="stop-color:rgb(255,205,15);stop-opacity:1"/></linearGradient>
        <linearGradient id="_Linear14" x1="0" y1="0" x2="1" y2="0" gradientUnits="userSpaceOnUse" gradientTransform="matrix(141.029,-0,0,-141.029,812.355,252.354)"><stop offset="0" style="stop-color:rgb(223,139,40);stop-opacity:1"/><stop offset="1" style="stop-color:rgb(255,205,15);stop-opacity:1"/></linearGradient>
        <linearGradient id="_Linear15" x1="0" y1="0" x2="1" y2="0" gradientUnits="userSpaceOnUse" gradientTransform="matrix(135.828,-0,0,-135.828,797.51,296.006)"><stop offset="0" style="stop-color:rgb(223,139,40);stop-opacity:1"/><stop offset="1" style="stop-color:rgb(255,205,15);stop-opacity:1"/></linearGradient>
    </defs>
</svg>
